<svg xmlns="http://www.w3.org/2000/svg" viewBox="0 0 512 512">
  <path fill="#ec4899" d="M184 0c30.9 0 56 25.1 56 56V456c0 30.9-25.1 56-56 56c-28.9 0-52.7-21.9-55.7-50.1c-5.2 1.4-10.7 2.1-16.3 2.1c-35.3 0-64-28.7-64-64c0-7.4 1.3-14.6 3.6-21.2C21.4 367.4 0 338.2 0 304c0-31.9 18.7-59.5 45.8-72.3C37.1 220.8 32 207 32 192c0-30.7 21.6-56.3 50.4-66.2C72.8 97.4 64 78.4 64 56c0-30.9 25.1-56 56-56h64zm-56 240c-22.1 0-40 17.9-40 40s17.9 40 40 40c-22.1 0-40 17.9-40 40s17.9 40 40 40h48V240h-48zm96 0v240h48c22.1 0 40-17.9 40-40s-17.9-40-40-40c22.1 0 40-17.9 40-40s-17.9-40-40-40c22.1 0 40-17.9 40-40s-17.9-40-40-40h-48z"/>
</svg>
